# xmcd CD database file
#
# Track frame offsets:
#	150
#	17020
#	35440
#	53015
#	64653
#	78421
#	122265
#	138980
#	193289
#	207572
#	237293
#	254653
#	260731
#	272525
#	288299
#
# Disc length: 4263 seconds
#
# Revision: 0
# Processed by: cddbd v1.5.2PL0 Copyright (c) Steve Scherf et al.
# Submitted via: CDex 1.51
#
DISCID=dc10a50f
DTITLE=Jazz-Optimisten Berlin - Jazz Lyrik Prosa III
DYEAR=2004
DGENRE=Jazz
TTITLE0=Jazz Is What I'm Living For
TTITLE1=Limonade
TTITLE2=Das Grammophone
TTITLE3=Die Füchsin un der Biber
TTITLE4=Send In The Clowns
TTITLE5=Bemerkungen übers Hundetheater
TTITLE6=Chucho
TTITLE7=Nur noch einmal
TTITLE8=Swing It, Christopher Columbus
TTITLE9=Lohengrin
TTITLE10=Ich hab a Mädele
TTITLE11=Irrtümer
TTITLE12=Das Pflaumenhuhn
TTITLE13=Never Make Your Move Too Soon
TTITLE14=Der Hase im Rausch
EXTD=YEAR: 2004
EXTT0=
EXTT1=
EXTT2=
EXTT3=
EXTT4=
EXTT5=
EXTT6=
EXTT7=
EXTT8=
EXTT9=
EXTT10=
EXTT11=
EXTT12=
EXTT13=
EXTT14=
PLAYORDER=
